PathFileType	4	(X/Y/Z)	output.trc
DataRate	CameraRate	NumFrames	NumMarkers	Units	OrigDataRate	OrigDataStartFrame	OrigNumFrames
100	100	18	23	m	100	536	4280
Frame#	Time	C7			T8			EL			EM			US			RS			AA			Fore_Clus_1			Fore_Clus_2			Fore_Clus_3			Fore_Clus_4			Hum_Clus_1			Hum_Clus_2			Hum_Clus_3			Hum_Clus_4			Thor_Clus_1			Thor_Clus_2			Thor_Clus_3			Thor_Clus_4			IJ			PX			GH			Thor_Clus_5		
		X1	Y1	Z1	X2	Y2	Z2	X3	Y3	Z3	X4	Y4	Z4	X5	Y5	Z5	X6	Y6	Z6	X7	Y7	Z7	X8	Y8	Z8	X9	Y9	Z9	X10	Y10	Z10	X11	Y11	Z11	X12	Y12	Z12	X13	Y13	Z13	X14	Y14	Z14	X15	Y15	Z15	X16	Y16	Z16	X17	Y17	Z17	X18	Y18	Z18	X19	Y19	Z19	X20	Y20	Z20	X21	Y21	Z21	X22	Y22	Z22	X23	Y23	Z23
535	5.350000	-0.006453	1.635631	-0.048719	-0.048234	1.405081	-0.129870	-0.173454	1.209884	0.158813	-0.172785	1.203443	0.086958	-0.175173	0.938219	0.186026	-0.125839	0.945756	0.211836	-0.160387	1.549476	0.107965	-0.186803	0.991831	0.220400	-0.181608	0.938764	0.231116	-0.155246	0.943156	0.240447	-0.145206	0.999773	0.235723	-0.122561	1.320420	0.193464	-0.180523	1.335266	0.187642	-0.175467	1.398712	0.188022	-0.117201	1.393948	0.185352	0.132923	1.506362	0.059297	0.098412	1.449465	0.111424	0.097411	1.501260	0.085660	0.149653	1.456466	0.072743	0.059245	1.524919	0.033351	0.080066	1.331980	0.047129	-0.126288	1.533287	0.103934	0.091418	1.471575	0.105382
536	5.360000	-0.006992	1.635751	-0.049168	-0.048040	1.405089	-0.130376	-0.174600	1.209956	0.157315	-0.173550	1.203579	0.085459	-0.176229	0.938233	0.184331	-0.127044	0.945802	0.210414	-0.161622	1.549495	0.106773	-0.188154	0.991901	0.218649	-0.182997	0.938842	0.229474	-0.156701	0.943201	0.238820	-0.146634	0.999757	0.234330	-0.123856	1.320560	0.192370	-0.181853	1.335318	0.186199	-0.176873	1.398749	0.186637	-0.118500	1.394110	0.184236	0.132107	1.506919	0.059701	0.097298	1.449938	0.111594	0.096358	1.501725	0.085837	0.148791	1.457012	0.073320	0.058428	1.525184	0.033318	0.079437	1.332282	0.047337	-0.127476	1.533456	0.102968	0.090013	1.472067	0.105339
537	5.370000	-0.007495	1.635881	-0.049596	-0.047866	1.405144	-0.130929	-0.175748	1.210009	0.155839	-0.174342	1.203700	0.083982	-0.177313	0.938227	0.182651	-0.128276	0.945822	0.209004	-0.162810	1.549500	0.105593	-0.189433	0.991933	0.216873	-0.184245	0.938831	0.227548	-0.158111	0.943361	0.237310	-0.148052	0.999772	0.232907	-0.125165	1.320677	0.191131	-0.183155	1.335384	0.184805	-0.178182	1.398841	0.185300	-0.119884	1.394181	0.183183	0.131259	1.507373	0.060033	0.096262	1.450289	0.111677	0.095263	1.501960	0.086025	0.147863	1.457539	0.073715	0.057635	1.525418	0.033258	0.078797	1.332546	0.047451	-0.128631	1.533598	0.102021	0.088800	1.472293	0.105286
538	5.380000	-0.007957	1.636018	-0.049983	-0.047724	1.405251	-0.131529	-0.176888	1.210011	0.154393	-0.175156	1.203772	0.082537	-0.178431	0.938174	0.181003	-0.129537	0.945786	0.207616	-0.163944	1.549482	0.104444	-0.190789	0.991891	0.215172	-0.185648	0.938871	0.225992	-0.159581	0.943283	0.235736	-0.149498	0.999857	0.231253	-0.126448	1.320705	0.189992	-0.184413	1.335411	0.183494	-0.179501	1.398918	0.184047	-0.121186	1.394220	0.182159	0.129844	1.507444	0.059887	0.095238	1.450608	0.111768	0.094283	1.502355	0.085957	0.146956	1.457839	0.073892	0.056871	1.525606	0.033177	0.078138	1.332752	0.047456	-0.129748	1.533683	0.101096	0.087848	1.472614	0.105368
539	5.390000	-0.008403	1.636110	-0.050340	-0.047622	1.405347	-0.132162	-0.178008	1.209936	0.152986	-0.175982	1.203768	0.081132	-0.179575	0.938051	0.179398	-0.130822	0.945671	0.206268	-0.165031	1.549394	0.103335	-0.192099	0.991836	0.213467	-0.186957	0.938833	0.224194	-0.160893	0.943181	0.234059	-0.150868	0.999769	0.229876	-0.127775	1.320724	0.188927	-0.185738	1.335447	0.182240	-0.180880	1.398808	0.182880	-0.122425	1.394265	0.181142	0.128994	1.507755	0.060078	0.094200	1.450798	0.111796	0.093175	1.502613	0.086038	0.146062	1.458092	0.074166	0.056127	1.525714	0.033071	0.077473	1.332869	0.047369	-0.130826	1.533685	0.100195	0.086847	1.472784	0.105385
540	5.400000	-0.008822	1.636171	-0.050647	-0.047567	1.405455	-0.132828	-0.179099	1.209765	0.151623	-0.176808	1.203668	0.079771	-0.180756	0.937840	0.177848	-0.132139	0.945456	0.204963	-0.166064	1.549245	0.102281	-0.193428	0.991698	0.211913	-0.188338	0.938656	0.222602	-0.162306	0.943144	0.232617	-0.152255	0.999568	0.228482	-0.129026	1.320637	0.187879	-0.186912	1.335298	0.180893	-0.182139	1.398699	0.181633	-0.123764	1.394261	0.180215	0.128236	1.507909	0.060216	0.093181	1.450856	0.111757	0.092311	1.502655	0.086038	0.145158	1.458253	0.074271	0.055407	1.525739	0.032949	0.076794	1.332894	0.047179	-0.131862	1.533585	0.099316	0.085707	1.472769	0.105253
541	5.410000	-0.009237	1.636169	-0.050916	-0.047564	1.405532	-0.133513	-0.180145	1.209486	0.150310	-0.177622	1.203457	0.078460	-0.181972	0.937532	0.176357	-0.133487	0.945130	0.203712	-0.167049	1.549007	0.101288	-0.194787	0.991450	0.210356	-0.189613	0.938354	0.220939	-0.163863	0.942938	0.231249	-0.153674	0.999312	0.227283	-0.130255	1.320414	0.186830	-0.188138	1.335053	0.179708	-0.183392	1.398413	0.180459	-0.124972	1.393967	0.179222	0.127355	1.507829	0.060265	0.092264	1.450776	0.111709	0.091355	1.502603	0.086002	0.144353	1.458285	0.074403	0.054704	1.525668	0.032808	0.076111	1.332815	0.046903	-0.132856	1.533371	0.098462	0.084784	1.472812	0.105234
542	5.420000	-0.009657	1.636098	-0.051152	-0.047614	1.405564	-0.134206	-0.181135	1.209093	0.149049	-0.178410	1.203131	0.077201	-0.183226	0.937126	0.174930	-0.134867	0.944689	0.202519	-0.167990	1.548678	0.100361	-0.196159	0.991089	0.208983	-0.191193	0.937971	0.219690	-0.165190	0.942377	0.229835	-0.155093	0.998868	0.225949	-0.131482	1.320055	0.185756	-0.189332	1.334744	0.178507	-0.184601	1.398030	0.179388	-0.126197	1.393568	0.178207	0.126762	1.507688	0.060499	0.091256	1.450542	0.111652	0.090460	1.502438	0.085910	0.143575	1.458060	0.074591	0.054015	1.525500	0.032650	0.075431	1.332635	0.046555	-0.133809	1.533042	0.097632	0.083874	1.472690	0.105202
543	5.430000	-0.010080	1.635975	-0.051349	-0.047719	1.405569	-0.134901	-0.182057	1.208591	0.147843	-0.179158	1.202695	0.075996	-0.184526	0.936628	0.173567	-0.136288	0.944135	0.201381	-0.168887	1.548275	0.099506	-0.197527	0.990489	0.207484	-0.192596	0.937433	0.218146	-0.166721	0.941852	0.228524	-0.156595	0.998366	0.224659	-0.132639	1.319560	0.184802	-0.190582	1.334215	0.177406	-0.185773	1.397561	0.178318	-0.127372	1.393063	0.177344	0.126066	1.507449	0.060610	0.090361	1.450320	0.111556	0.089660	1.502162	0.085841	0.142720	1.457794	0.074689	0.053343	1.525253	0.032479	0.074753	1.332369	0.046140	-0.134719	1.532602	0.096827	0.082954	1.472371	0.105047
544	5.440000	-0.010533	1.635773	-0.051535	-0.047872	1.405497	-0.135580	-0.182902	1.207995	0.146691	-0.179855	1.202160	0.074846	-0.185866	0.936054	0.172266	-0.137744	0.943483	0.200301	-0.169752	1.547782	0.098714	-0.198940	0.989848	0.206142	-0.194027	0.936823	0.216847	-0.168266	0.941232	0.227351	-0.158053	0.997765	0.223443	-0.133836	1.318887	0.183926	-0.191570	1.333573	0.176242	-0.186907	1.396894	0.177247	-0.128492	1.392483	0.176546	0.125449	1.507094	0.060689	0.089568	1.449759	0.111459	0.088859	1.501626	0.085892	0.142013	1.457478	0.074601	0.052676	1.524927	0.032290	0.074095	1.332026	0.045691	-0.135590	1.532067	0.096048	0.082021	1.471831	0.104884
545	5.450000	-0.011005	1.635530	-0.051704	-0.048070	1.405390	-0.136242	-0.183660	1.207322	0.145595	-0.180489	1.201548	0.073750	-0.187256	0.935421	0.171023	-0.139244	0.942748	0.199272	-0.170583	1.547238	0.097988	-0.200418	0.989166	0.204820	-0.195656	0.936181	0.215472	-0.170052	0.940554	0.226283	-0.159650	0.996995	0.222401	-0.134895	1.318111	0.182985	-0.192677	1.332826	0.175269	-0.187941	1.396196	0.176252	-0.129542	1.391767	0.175734	0.124466	1.506543	0.060544	0.088680	1.449137	0.111320	0.088002	1.501031	0.085678	0.141231	1.456954	0.074537	0.052019	1.524555	0.032091	0.073456	1.331638	0.045212	-0.136421	1.531459	0.095297	0.081250	1.471220	0.104757
546	5.460000	-0.011514	1.635241	-0.051877	-0.048305	1.405226	-0.136870	-0.184329	1.206600	0.144555	-0.181053	1.200884	0.072710	-0.188692	0.934758	0.169833	-0.140785	0.941958	0.198292	-0.171388	1.546646	0.097318	-0.201987	0.988444	0.203616	-0.197324	0.935345	0.214313	-0.171701	0.939782	0.225120	-0.161218	0.996143	0.221404	-0.135812	1.317357	0.182142	-0.193623	1.332017	0.174238	-0.188956	1.395342	0.175335	-0.130544	1.390919	0.174881	0.123761	1.506006	0.060523	0.087829	1.448531	0.111043	0.087180	1.500463	0.085471	0.140420	1.456249	0.074523	0.051367	1.524154	0.031876	0.072848	1.331224	0.044731	-0.137216	1.530805	0.094576	0.080495	1.470529	0.104591
547	5.470000	-0.012062	1.634923	-0.052066	-0.048569	1.405010	-0.137459	-0.184905	1.205857	0.143570	-0.181542	1.200197	0.071724	-0.190172	0.934094	0.168689	-0.142365	0.941140	0.197353	-0.172173	1.546029	0.096697	-0.203507	0.987766	0.202486	-0.199076	0.934666	0.213161	-0.173417	0.938802	0.224016	-0.162811	0.995218	0.220433	-0.136619	1.316596	0.181243	-0.194483	1.331176	0.173285	-0.189727	1.394682	0.174416	-0.131395	1.390134	0.174131	0.123258	1.505447	0.060552	0.087035	1.447882	0.110794	0.086551	1.499858	0.085250	0.139717	1.455701	0.074348	0.050719	1.523750	0.031647	0.072278	1.330812	0.044267	-0.137977	1.530134	0.093888	0.079606	1.469835	0.104303
548	5.480000	-0.012641	1.634610	-0.052269	-0.048853	1.404778	-0.138005	-0.185393	1.205126	0.142639	-0.181956	1.199521	0.070793	-0.191701	0.933457	0.167586	-0.143986	0.940324	0.196448	-0.172935	1.545425	0.096122	-0.205024	0.986888	0.201352	-0.200838	0.933868	0.212034	-0.175212	0.938073	0.222994	-0.164371	0.994372	0.219480	-0.137367	1.315751	0.180658	-0.195189	1.330286	0.172470	-0.190533	1.393693	0.173599	-0.132224	1.389361	0.173410	0.122542	1.504868	0.060419	0.086262	1.447156	0.110618	0.085905	1.499333	0.085017	0.139079	1.455186	0.074132	0.050077	1.523375	0.031410	0.071745	1.330436	0.043826	-0.138704	1.529481	0.093236	0.078829	1.469172	0.104029
549	5.490000	-0.013267	1.634291	-0.052512	-0.049149	1.404500	-0.138497	-0.185796	1.204439	0.141765	-0.182298	1.198887	0.069918	-0.193264	0.932879	0.166518	-0.145638	0.939543	0.195573	-0.173686	1.544831	0.095578	-0.206587	0.986316	0.200393	-0.202196	0.933102	0.210592	-0.177036	0.937187	0.222161	-0.165952	0.993590	0.218632	-0.137813	1.314978	0.179868	-0.195666	1.329487	0.171689	-0.191134	1.392908	0.172915	-0.132785	1.388631	0.172808	0.121457	1.504271	0.060024	0.085496	1.446635	0.110121	0.085070	1.498591	0.084848	0.138315	1.454711	0.073850	0.049436	1.523041	0.031158	0.071263	1.330111	0.043438	-0.139402	1.528875	0.092624	0.078177	1.468543	0.103655
550	5.500000	-0.013919	1.634011	-0.052781	-0.049451	1.404231	-0.138939	-0.186126	1.203823	0.140947	-0.182575	1.198325	0.069098	-0.194865	0.932386	0.165483	-0.147321	0.938824	0.194721	-0.174420	1.544295	0.095065	-0.208062	0.985803	0.199414	-0.204599	0.932653	0.210147	-0.178999	0.936634	0.221236	-0.167520	0.992820	0.217900	-0.138169	1.314323	0.179104	-0.196064	1.328685	0.170919	-0.191689	1.392075	0.172245	-0.133252	1.387927	0.172124	0.120916	1.504026	0.059901	0.084826	1.446113	0.109568	0.084439	1.498229	0.084576	0.137665	1.454276	0.073676	0.048803	1.522781	0.030901	0.070823	1.329869	0.043098	-0.140071	1.528346	0.092057	0.077264	1.467974	0.103077
551	5.510000	-0.014604	1.633768	-0.053089	-0.049753	1.403958	-0.139325	-0.186393	1.203305	0.140186	-0.182798	1.197859	0.068336	-0.196492	0.932000	0.164476	-0.149023	0.938194	0.193890	-0.175142	1.543819	0.094576	-0.209563	0.985421	0.198497	-0.206021	0.932136	0.208871	-0.181097	0.936398	0.220478	-0.168986	0.992195	0.217009	-0.138433	1.313773	0.178480	-0.196266	1.328085	0.170364	-0.191973	1.391460	0.171716	-0.133546	1.387385	0.171385	0.120258	1.503862	0.059698	0.084212	1.445850	0.109396	0.083771	1.498047	0.084331	0.137114	1.454165	0.073397	0.048175	1.522604	0.030637	0.070430	1.329717	0.042822	-0.140715	1.527917	0.091537	0.078322	1.469033	0.104583
552	5.520000	-0.015316	1.633572	-0.053434	-0.050050	1.403693	-0.139654	-0.186613	1.202903	0.139485	-0.182981	1.197509	0.067632	-0.198137	0.931738	0.163499	-0.150738	0.937672	0.193078	-0.175851	1.543418	0.094108	-0.211034	0.985159	0.197655	-0.207628	0.931849	0.207720	-0.182514	0.935552	0.219380	-0.170486	0.991704	0.216187	-0.138510	1.313427	0.177811	-0.196390	1.327633	0.169851	-0.192148	1.391008	0.171210	-0.133733	1.387051	0.170730	0.119721	1.503981	0.059528	0.083684	1.445881	0.109113	0.083295	1.498305	0.084219	0.136626	1.454273	0.073237	0.047553	1.522518	0.030371	0.070081	1.329666	0.042615	-0.141335	1.527606	0.091068	0.078673	1.469699	0.105262
